# Blender 4.1.1
# www.blender.org
mtllib deformed_ico.mtl
o Sphere
v -0.113431 -0.490696 0.310677
v 0.235782 -0.490696 0.197209
v 0.139264 -0.297656 0.494271
v 0.488477 -0.297655 0.013619
v 0.235782 -0.490696 -0.169972
v -0.329260 -0.490695 0.013619
v -0.425781 -0.297655 0.310678
v -0.113431 -0.490696 -0.283440
v -0.425781 -0.297655 -0.283441
v 0.139264 -0.297656 -0.467033
v 0.548133 0.014697 0.197210
v 0.548133 0.014697 -0.169973
v -0.016912 0.014697 0.607741
v 0.332305 0.014697 0.773364
v -0.928539 0.014697 0.197210
v -0.366129 0.014697 0.494274
v -0.366129 0.014697 -0.467037
v -0.581957 0.014697 -0.169973
v 0.332305 0.014697 -0.467037
v -0.016912 0.014697 -0.580504
v 0.391957 0.327049 0.589768
v -0.173088 0.327049 0.494271
v -0.868883 0.327048 0.013619
v -0.173088 0.507760 -0.467033
v 0.391957 0.507759 -0.283441
v 0.079606 0.520090 0.310677
v 0.295436 0.700799 0.013619
v -0.269606 0.520090 0.197209
v -0.269606 0.520090 -0.169972
v 0.079606 0.700800 -0.283440
v -0.016912 0.608819 0.013619
v 0.514487 0.280398 0.013619
v 0.147296 0.461111 -0.491771
v -0.446824 0.280400 -0.298727
v -0.793406 0.280400 0.325964
v 0.147296 0.280400 0.798099
v 0.412999 -0.251006 -0.298727
v -0.181120 -0.251007 -0.491771
v -0.548311 -0.251004 0.013619
v -0.181120 -0.251007 0.519009
v 0.412999 -0.251006 0.325964
v -0.016912 -0.579426 0.013619
vn 0.4089 0.6617 -0.6284
vn 0.4911 0.7947 -0.3568
vn -0.2767 0.9397 0.2011
vn -0.7060 0.6600 -0.2568
vn -0.5004 0.8429 -0.1976
vn -0.4182 0.8972 0.1419
vn -0.3600 0.9061 0.2223
vn -0.3066 0.9518 -0.0000
vn -0.3313 0.9435 -0.0000
vn -0.3087 0.8359 0.4539
vn -0.1876 0.7947 0.5773
vn -0.1024 0.9435 0.3151
vn 0.8769 0.4569 0.1495
vn 0.0380 0.8412 0.5393
vn -0.2642 0.8972 0.3538
vn 0.6102 0.2106 -0.7638
vn 0.8032 0.1201 -0.5835
vn 0.9470 0.2550 -0.1955
vn -0.6512 0.2550 -0.7148
vn -0.3068 0.1201 -0.9442
vn -0.0447 0.2106 -0.9766
vn -0.9050 0.3304 0.2680
vn -0.7030 -0.2558 -0.6636
vn -0.5987 -0.0816 -0.7968
vn -0.6921 -0.0857 0.7167
vn -0.3035 0.1876 0.9342
vn -0.2699 0.1668 0.9483
vn 0.9518 0.2466 0.1825
vn 0.9361 0.0273 0.3507
vn 0.5746 0.3304 0.7488
vn 0.0247 -0.3304 -0.9435
vn 0.3035 -0.1876 -0.9342
vn 0.3081 0.0752 -0.9484
vn -0.8897 -0.3304 -0.3151
vn -0.7947 -0.1876 -0.5773
vn -0.8026 0.1256 -0.5831
vn -0.5746 -0.3304 0.7488
vn -0.4290 -0.3954 0.8122
vn -0.4588 -0.1876 0.8685
vn 0.4421 -0.7339 0.5156
vn -0.3767 -0.4768 0.7942
vn -0.4002 -0.3572 0.8439
vn 0.9050 -0.3304 -0.2680
vn 0.9822 -0.1876 -0.0000
vn 0.9921 0.1256 -0.0000
vn -0.0385 -0.6617 -0.7488
vn 0.1876 -0.7947 -0.5773
vn 0.4713 -0.6617 -0.5831
vn -0.7240 -0.6617 -0.1947
vn -0.4911 -0.7947 -0.3568
vn -0.4089 -0.6617 -0.6284
vn -0.4089 -0.6617 0.6284
vn -0.4911 -0.7947 0.3568
vn -0.7240 -0.6617 0.1947
vn 0.3313 -0.9435 -0.0000
vn 0.6071 -0.7947 -0.0000
vn 0.7002 -0.6617 -0.2680
vn 0.4713 -0.6617 0.5831
vn 0.1876 -0.7947 0.5773
vn -0.0385 -0.6617 0.7488
vn 0.8868 0.4621 -0.0121
vn 0.0385 0.6617 -0.7488
vn -0.4061 0.6470 -0.6454
vn -0.2165 0.7850 0.5805
vn 0.1820 0.8922 0.4135
vn 0.8026 -0.1256 -0.5831
vn -0.3066 -0.1256 -0.9435
vn -0.6328 -0.4928 -0.5973
vn -0.3066 -0.1256 0.9435
vn 0.8954 -0.2929 0.3354
vn 0.5346 -0.3304 -0.7779
vn -0.5746 -0.3304 -0.7488
vn -0.5403 -0.8365 0.0915
vn 0.0247 -0.3304 0.9435
vn 0.9050 -0.3304 0.2680
vn 0.1024 -0.9435 -0.3151
vn -0.2680 -0.9435 -0.1947
vn -0.2680 -0.9435 0.1947
vn 0.7002 -0.6617 0.2680
vn 0.1024 -0.9435 0.3151
vt 0.454546 0.314921
vt 0.545455 0.314921
vt 0.500000 0.393651
vt 0.409092 0.393651
vt 0.454546 0.472382
vt 0.636364 0.314921
vt 0.727273 0.314921
vt 0.681818 0.393651
vt 0.590909 0.393651
vt 0.636364 0.472382
vt 0.818182 0.314921
vt 0.909091 0.314921
vt 0.863636 0.393651
vt 0.772727 0.393651
vt 0.818182 0.472382
vt 0.090910 0.314921
vt 0.181819 0.314921
vt 0.136365 0.393651
vt 0.045455 0.393651
vt 0.090910 0.472382
vt 0.272728 0.314921
vt 0.363637 0.314921
vt 0.318182 0.393651
vt 0.227273 0.393651
vt 0.272728 0.472382
vt 0.500000 0.236191
vt 0.409092 0.236191
vt 0.681818 0.236191
vt 0.590909 0.236191
vt 0.863636 0.236191
vt 0.772727 0.236191
vt 0.136365 0.236191
vt 0.045455 0.236191
vt 0.000000 0.314921
vt 0.318182 0.236191
vt 0.227273 0.236191
vt 0.545455 0.157461
vt 0.636364 0.157461
vt 0.727273 0.157461
vt 0.818182 0.157461
vt 0.909091 0.157461
vt 1.000000 0.157461
vt 0.954545 0.236191
vt 0.181819 0.157461
vt 0.272728 0.157461
vt 0.363637 0.157461
vt 0.454546 0.157461
vt 0.590909 0.078731
vt 0.500000 0.078731
vt 0.772727 0.078731
vt 0.681818 0.078731
vt 0.954545 0.078731
vt 0.863636 0.078731
vt 0.318182 0.078731
vt 0.363637 0.000000
vt 0.409092 0.078731
vt 0.227273 0.078731
vt 0.136365 0.078731
vt 0.090910 0.157461
vt 0.545455 0.000000
vt 0.727273 0.000000
vt 0.909091 0.000000
vt 0.181819 0.000000
s 0
f 25/1/1 33/2/1 30/3/1
f 27/4/2 25/1/2 30/3/2
f 27/4/3 30/3/3 31/5/3
f 24/6/4 34/7/4 29/8/4
f 30/9/5 24/6/5 29/8/5
f 30/9/6 29/8/6 31/10/6
f 23/11/7 35/12/7 28/13/7
f 29/14/8 23/11/8 28/13/8
f 29/14/9 28/13/9 31/15/9
f 22/16/10 36/17/10 26/18/10
f 28/19/11 22/16/11 26/18/11
f 28/19/12 26/18/12 31/20/12
f 21/21/13 32/22/13 27/23/13
f 26/24/14 21/21/14 27/23/14
f 26/24/15 27/23/15 31/25/15
f 19/26/16 33/2/16 25/1/16
f 12/27/17 19/26/17 25/1/17
f 12/27/18 25/1/18 32/22/18
f 17/28/19 34/7/19 24/6/19
f 20/29/20 17/28/20 24/6/20
f 20/29/21 24/6/21 33/2/21
f 15/30/22 35/12/22 23/11/22
f 18/31/23 15/30/23 23/11/23
f 18/31/24 23/11/24 34/7/24
f 13/32/25 36/17/25 22/16/25
f 16/33/26 13/32/26 22/16/26
f 16/33/27 22/16/27 35/34/27
f 11/35/28 32/22/28 21/21/28
f 14/36/29 11/35/29 21/21/29
f 14/36/30 21/21/30 36/17/30
f 10/37/31 38/38/31 20/29/31
f 19/26/32 10/37/32 20/29/32
f 19/26/33 20/29/33 33/2/33
f 9/39/34 39/40/34 18/31/34
f 17/28/35 9/39/35 18/31/35
f 17/28/36 18/31/36 34/7/36
f 7/41/37 40/42/37 16/43/37
f 15/30/38 7/41/38 16/43/38
f 15/30/39 16/43/39 35/12/39
f 3/44/40 41/45/40 14/36/40
f 13/32/41 3/44/41 14/36/41
f 13/32/42 14/36/42 36/17/42
f 4/46/43 37/47/43 12/27/43
f 11/35/44 4/46/44 12/27/44
f 11/35/45 12/27/45 32/22/45
f 8/48/46 38/38/46 10/37/46
f 5/49/47 8/48/47 10/37/47
f 5/49/48 10/37/48 37/47/48
f 6/50/49 39/40/49 9/39/49
f 8/51/50 6/50/50 9/39/50
f 8/51/51 9/39/51 38/38/51
f 1/52/52 40/42/52 7/41/52
f 6/53/53 1/52/53 7/41/53
f 6/53/54 7/41/54 39/40/54
f 2/54/55 42/55/55 5/56/55
f 4/46/56 2/54/56 5/56/56
f 4/46/57 5/56/57 37/47/57
f 2/57/58 41/45/58 3/44/58
f 1/58/59 2/57/59 3/44/59
f 1/58/60 3/44/60 40/59/60
f 32/22/61 25/1/61 27/4/61
f 33/2/62 24/6/62 30/9/62
f 34/7/63 23/11/63 29/14/63
f 35/34/64 22/16/64 28/19/64
f 36/17/65 21/21/65 26/24/65
f 37/47/66 19/26/66 12/27/66
f 38/38/67 17/28/67 20/29/67
f 39/40/68 15/30/68 18/31/68
f 40/59/69 13/32/69 16/33/69
f 41/45/70 11/35/70 14/36/70
f 37/47/71 10/37/71 19/26/71
f 38/38/72 9/39/72 17/28/72
f 39/40/73 7/41/73 15/30/73
f 40/59/74 3/44/74 13/32/74
f 41/45/75 4/46/75 11/35/75
f 42/60/76 8/48/76 5/49/76
f 42/61/77 6/50/77 8/51/77
f 42/62/78 1/52/78 6/53/78
f 41/45/79 2/54/79 4/46/79
f 42/63/80 2/57/80 1/58/80
